<svg id="wave" style="transform:rotate(0deg); transition: 0.3s" viewBox="0 0 1440 180" version="1.1" xmlns="http://www.w3.org/2000/svg"><defs><linearGradient id="sw-gradient-0" x1="0" x2="0" y1="1" y2="0"><stop stop-color="rgba(255, 51, 51, 1)" offset="0%"></stop><stop stop-color="rgba(255, 51, 51, 1)" offset="100%"></stop></linearGradient></defs><path style="transform:translate(0, 0px); opacity:1" fill="url(#sw-gradient-0)" d="M0,90L60,84C120,78,240,66,360,69C480,72,600,90,720,87C840,84,960,60,1080,48C1200,36,1320,36,1440,51C1560,66,1680,96,1800,117C1920,138,2040,150,2160,156C2280,162,2400,162,2520,156C2640,150,2760,138,2880,123C3000,108,3120,90,3240,93C3360,96,3480,120,3600,126C3720,132,3840,120,3960,108C4080,96,4200,84,4320,72C4440,60,4560,48,4680,45C4800,42,4920,48,5040,54C5160,60,5280,66,5400,84C5520,102,5640,132,5760,123C5880,114,6000,66,6120,45C6240,24,6360,30,6480,30C6600,30,6720,24,6840,42C6960,60,7080,102,7200,123C7320,144,7440,144,7560,132C7680,120,7800,96,7920,75C8040,54,8160,36,8280,33C8400,30,8520,42,8580,48L8640,54L8640,180L8580,180C8520,180,8400,180,8280,180C8160,180,8040,180,7920,180C7800,180,7680,180,7560,180C7440,180,7320,180,7200,180C7080,180,6960,180,6840,180C6720,180,6600,180,6480,180C6360,180,6240,180,6120,180C6000,180,5880,180,5760,180C5640,180,5520,180,5400,180C5280,180,5160,180,5040,180C4920,180,4800,180,4680,180C4560,180,4440,180,4320,180C4200,180,4080,180,3960,180C3840,180,3720,180,3600,180C3480,180,3360,180,3240,180C3120,180,3000,180,2880,180C2760,180,2640,180,2520,180C2400,180,2280,180,2160,180C2040,180,1920,180,1800,180C1680,180,1560,180,1440,180C1320,180,1200,180,1080,180C960,180,840,180,720,180C600,180,480,180,360,180C240,180,120,180,60,180L0,180Z"></path></svg>